<svg xmlns="http://www.w3.org/2000/svg" width="4167" height="4167" viewBox="0 0 4167 4167">
  <defs>
    <style>
      .cls-1 {
        fill: #149a80;
      }

      .cls-1, .cls-2 {
        fill-rule: evenodd;
      }

      .cls-2 {
        fill: #fff;
      }
    </style>
  </defs>
  <path class="cls-1" d="M2084.5,115.52c1073.07,0,1942.97,853.784,1942.97,1906.98S3157.57,3929.48,2084.5,3929.48,141.529,3075.7,141.529,2022.5,1011.43,115.52,2084.5,115.52Z"/>
  <path id="Color_Fill_1" data-name="Color Fill 1" class="cls-2" d="M1484.22,568c4.25,40.588,29.17,74.284,46.37,102.857,33.17,55.085,56.72,114.483,88.54,167.143,24.7,40.885,38.58,83.466,63.24,124.286,87.24,144.424,170.13,296.424,257.18,441.424,31.33,52.21,57.63,110.28,84.32,162.86,8.46,16.67,14.2,59.98,29.51,68.57h113.83c45.07-122.38,124.84-248.74,189.72-355.71,22.07-36.39,32.78-74.64,54.81-111.43,57.43-95.88,107.79-193.273,160.21-295.714,42.63-83.309,129.87-192.993,134.91-304.286H3217v8.571c-9.92,16-9.11,37.71-16.86,55.715a786.448,786.448,0,0,1-46.38,90c-83.82,138.771-178.41,274.977-269.83,407.144-28.1,40.63-47.83,83.61-75.88,124.28-57.66,83.6-111.9,170.31-168.64,257.15-23.58,36.08-67.07,77.28-75.89,124.28h623.97v604.29H2913.45c-28.28-115.59-123.47-247.74-231.88-282.86-77.12-24.98-195.22-13.78-290.91-12.86-7.81,36.39-29.2,66.94-42.16,98.58-27.9,68.1-45.19,143.47-63.24,218.57v235.71c-0.02,204.09,18.17,397.17,21.08,591.43h286.69v390H1522.16V3088h290.91c0.59-198.59,16.84-390.19,16.86-595.71V2256.57c-14.34-64.7-22.5-128.08-42.16-188.57-12.86-39.55-32.53-75.89-42.16-120-41.51-14.14-114.72-4.64-164.42-4.29-17.35,10.97-54.8,2.69-75.89,8.58-40.15,11.19-83.2,28.81-113.83,51.42-44.94,33.18-84.15,102.09-109.62,154.29q-14.76,40.71-29.51,81.43H978.3V1635.14H1589.62c-5.91-37.72-37.48-69.81-54.81-98.57-8.4-13.94-8.47-28.91-16.86-42.86-32.77-54.44-71.97-109.2-105.4-162.85-95.5-153.24-187.82-301.91-282.48-454.289C1067.54,775.912,998.435,688.841,953,568h531.22Z"/>
</svg>
