<svg xmlns="http://www.w3.org/2000/svg" viewBox="0 0 120 50" fill="#635BFF">
  <path d="M9.6 20.1c0-1.7 1.4-2.4 3.7-2.4 3.3 0 7.5 1 10.8 2.8V11c-3.6-1.4-7.2-2-10.8-2C5.4 9 0 12.8 0 19.7c0 10.6 14.6 8.9 14.6 13.5 0 2-1.7 2.6-4.2 2.6-3.6 0-8.2-1.5-11.9-3.5v9.5c4.1 1.7 8.1 2.5 11.9 2.5 8.1 0 13.7-4 13.7-10.8-.1-11.5-14.7-9.4-14.5-13.4zm29.2-11L30.5 11v30.4h8.3V9.1zM30.5 5.3l8.3-1.8V-1L30.5 1v4.3zm21.3 8.9l-.5-3.8h-7.5v30.4h8.3V22.2c2-2.6 5.3-2.1 6.3-1.7V12c-1.1-.4-5-1.1-6.6 2.2zm16.3-5.1L59.8 11v30.4h8.3V11l-0.1-1.9zm-8.3-3.8l8.3-1.8V-1L59.8 1v4.3zm27.7 7.8c-3.3 0-5.4 1.6-6.6 2.6l-.4-2.1h-7.4v39.5l8.3-1.8v-9.6c1.2.9 3 2.1 5.9 2.1 6 0 11.4-4.8 11.4-15.4 0-9.7-5.5-15.3-11.2-15.3zm-2 23.5c-2 0-3.1-.7-3.9-1.6V20c.9-1 2-1.6 3.9-1.6 3 0 5 3.3 5 7.6 0 4.4-2 7.6-5 7.6zm35.3-7.7c0-9-4.4-15.6-12.7-15.6s-13.4 6.6-13.4 15.5c0 10.2 6 15.3 14.5 15.3 4.2 0 7.4-.9 9.8-2.3v-6.5c-2.4 1.2-5.2 2-8.7 2-3.4 0-6.5-1.2-6.9-5.4h17.3c0-.5.1-2.2.1-3zm-17.4-3.2c0-4 2.5-5.7 4.7-5.7s4.5 1.7 4.5 5.7h-9.2z"/>
</svg>

